{
	"asset":{
		"generator":"Khronos glTF Blender I/O v3.5.30",
		"version":"2.0"
	},
	"scene":0,
	"scenes":[
		{
			"name":"Scene",
			"nodes":[
				0
			]
		}
	],
	"nodes":[
		{
			"mesh":0,
			"name":"join logo",
			"rotation":[
				0.6996259093284607,
				-0.0001506495027570054,
				0.014583677984774113,
				0.7143604755401611
			],
			"translation":[
				0,
				0.17964139580726624,
				-0.1796116679906845
			]
		}
	],
	"animations":[
		{
			"channels":[
				{
					"sampler":0,
					"target":{
						"node":0,
						"path":"rotation"
					}
				},
				{
					"sampler":1,
					"target":{
						"node":0,
						"path":"scale"
					}
				}
			],
			"name":"join logoAction.001",
			"samplers":[
				{
					"input":4,
					"interpolation":"LINEAR",
					"output":5
				},
				{
					"input":4,
					"interpolation":"LINEAR",
					"output":6
				}
			]
		}
	],
	"materials":[
		{
			"doubleSided":true,
			"name":"SVGMat",
			"pbrMetallicRoughness":{
				"baseColorTexture":{
					"index":0
				},
				"metallicFactor":0,
				"roughnessFactor":0.5
			}
		}
	],
	"meshes":[
		{
			"name":"Curve.038",
			"primitives":[
				{
					"attributes":{
						"POSITION":0,
						"TEXCOORD_0":1,
						"NORMAL":2
					},
					"indices":3,
					"material":0
				}
			]
		}
	],
	"textures":[
		{
			"sampler":0,
			"source":0
		}
	],
	"images":[
		{
			"bufferView":4,
			"mimeType":"image/png",
			"name":"LOGO texture"
		}
	],
	"accessors":[
		{
			"bufferView":0,
			"componentType":5126,
			"count":1728,
			"max":[
				0.10728355497121811,
				0,
				0.1076526790857315
			],
			"min":[
				-0.10749193280935287,
				0,
				-0.10735966265201569
			],
			"type":"VEC3"
		},
		{
			"bufferView":1,
			"componentType":5126,
			"count":1728,
			"type":"VEC2"
		},
		{
			"bufferView":2,
			"componentType":5126,
			"count":1728,
			"type":"VEC3"
		},
		{
			"bufferView":3,
			"componentType":5123,
			"count":4968,
			"type":"SCALAR"
		},
		{
			"bufferView":5,
			"componentType":5126,
			"count":220,
			"max":[
				1.8333333333333333
			],
			"min":[
				0.008333333333333333
			],
			"type":"SCALAR"
		},
		{
			"bufferView":6,
			"componentType":5126,
			"count":220,
			"type":"VEC4"
		},
		{
			"bufferView":7,
			"componentType":5126,
			"count":220,
			"type":"VEC3"
		}
	],
	"bufferViews":[
		{
			"buffer":0,
			"byteLength":20736,
			"byteOffset":0,
			"target":34962
		},
		{
			"buffer":0,
			"byteLength":13824,
			"byteOffset":20736,
			"target":34962
		},
		{
			"buffer":0,
			"byteLength":20736,
			"byteOffset":34560,
			"target":34962
		},
		{
			"buffer":0,
			"byteLength":9936,
			"byteOffset":55296,
			"target":34963
		},
		{
			"buffer":0,
			"byteLength":333698,
			"byteOffset":65232
		},
		{
			"buffer":0,
			"byteLength":880,
			"byteOffset":398932
		},
		{
			"buffer":0,
			"byteLength":3520,
			"byteOffset":399812
		},
		{
			"buffer":0,
			"byteLength":2640,
			"byteOffset":403332
		}
	],
	"samplers":[
		{
			"magFilter":9729,
			"minFilter":9987
		}
	],
	"buffers":[
		{
			"byteLength":405972,
			"uri":"data:application/octet-stream;base64,"
		}
	]
}
